<svg width="908" height="36" viewBox="0 0 908 36" fill="none" xmlns="http://www.w3.org/2000/svg">
<path d="M1.88 25V11H7.64C8.88 11 9.94 11.2 10.82 11.6C11.7133 12 12.4 12.5733 12.88 13.32C13.36 14.0667 13.6 14.9533 13.6 15.98C13.6 17.0067 13.36 17.8933 12.88 18.64C12.4 19.3867 11.7133 19.96 10.82 20.36C9.94 20.76 8.88 20.96 7.64 20.96H3.32L4.48 19.74V25H1.88ZM4.48 20.02L3.32 18.76H7.52C8.66667 18.76 9.52667 18.52 10.1 18.04C10.6867 17.5467 10.98 16.86 10.98 15.98C10.98 15.0867 10.6867 14.4 10.1 13.92C9.52667 13.44 8.66667 13.2 7.52 13.2H3.32L4.48 11.92V20.02ZM15.8588 25V14.32H18.2388V17.26L17.9588 16.4C18.2788 15.68 18.7788 15.1333 19.4588 14.76C20.1521 14.3867 21.0121 14.2 22.0388 14.2V16.58C21.9321 16.5533 21.8321 16.54 21.7388 16.54C21.6454 16.5267 21.5521 16.52 21.4588 16.52C20.5121 16.52 19.7588 16.8 19.1988 17.36C18.6388 17.9067 18.3588 18.7267 18.3588 19.82V25H15.8588ZM24.1595 25V14.32H26.6595V25H24.1595ZM25.4195 12.56C24.9529 12.56 24.5662 12.4133 24.2595 12.12C23.9662 11.8267 23.8195 11.4733 23.8195 11.06C23.8195 10.6333 23.9662 10.28 24.2595 10C24.5662 9.70667 24.9529 9.56 25.4195 9.56C25.8862 9.56 26.2662 9.7 26.5595 9.98C26.8662 10.2467 27.0195 10.5867 27.0195 11C27.0195 11.44 26.8729 11.8133 26.5795 12.12C26.2862 12.4133 25.8995 12.56 25.4195 12.56ZM34.8408 25.14C33.7208 25.14 32.7208 24.9067 31.8408 24.44C30.9741 23.96 30.2941 23.3067 29.8008 22.48C29.3074 21.6533 29.0608 20.7133 29.0608 19.66C29.0608 18.5933 29.3074 17.6533 29.8008 16.84C30.2941 16.0133 30.9741 15.3667 31.8408 14.9C32.7208 14.4333 33.7208 14.2 34.8408 14.2C35.8808 14.2 36.7941 14.4133 37.5808 14.84C38.3808 15.2533 38.9874 15.8667 39.4008 16.68L37.4808 17.8C37.1608 17.2933 36.7674 16.92 36.3008 16.68C35.8474 16.44 35.3541 16.32 34.8208 16.32C34.2074 16.32 33.6541 16.4533 33.1608 16.72C32.6674 16.9867 32.2808 17.3733 32.0008 17.88C31.7208 18.3733 31.5808 18.9667 31.5808 19.66C31.5808 20.3533 31.7208 20.9533 32.0008 21.46C32.2808 21.9533 32.6674 22.3333 33.1608 22.6C33.6541 22.8667 34.2074 23 34.8208 23C35.3541 23 35.8474 22.88 36.3008 22.64C36.7674 22.4 37.1608 22.0267 37.4808 21.52L39.4008 22.64C38.9874 23.44 38.3808 24.06 37.5808 24.5C36.7941 24.9267 35.8808 25.14 34.8408 25.14ZM46.4256 25.14C45.239 25.14 44.199 24.9067 43.3056 24.44C42.4256 23.96 41.739 23.3067 41.2456 22.48C40.7656 21.6533 40.5256 20.7133 40.5256 19.66C40.5256 18.5933 40.759 17.6533 41.2256 16.84C41.7056 16.0133 42.359 15.3667 43.1856 14.9C44.0256 14.4333 44.979 14.2 46.0456 14.2C47.0856 14.2 48.0123 14.4267 48.8256 14.88C49.639 15.3333 50.279 15.9733 50.7456 16.8C51.2123 17.6267 51.4456 18.6 51.4456 19.72C51.4456 19.8267 51.439 19.9467 51.4256 20.08C51.4256 20.2133 51.419 20.34 51.4056 20.46H42.5056V18.8H50.0856L49.1056 19.32C49.119 18.7067 48.9923 18.1667 48.7256 17.7C48.459 17.2333 48.0923 16.8667 47.6256 16.6C47.1723 16.3333 46.6456 16.2 46.0456 16.2C45.4323 16.2 44.8923 16.3333 44.4256 16.6C43.9723 16.8667 43.6123 17.24 43.3456 17.72C43.0923 18.1867 42.9656 18.74 42.9656 19.38V19.78C42.9656 20.42 43.1123 20.9867 43.4056 21.48C43.699 21.9733 44.1123 22.3533 44.6456 22.62C45.179 22.8867 45.7923 23.02 46.4856 23.02C47.0856 23.02 47.6256 22.9267 48.1056 22.74C48.5856 22.5533 49.0123 22.26 49.3856 21.86L50.7256 23.4C50.2456 23.96 49.639 24.3933 48.9056 24.7C48.1856 24.9933 47.359 25.14 46.4256 25.14Z" fill="#282828"/>
<path d="M75 0.5H175C178.038 0.5 180.5 2.96243 180.5 6V30C180.5 33.0376 178.038 35.5 175 35.5H75C71.9624 35.5 69.5 33.0376 69.5 30V6C69.5 2.96243 71.9624 0.5 75 0.5Z" stroke="#DDDDDD"/>
<path d="M86.68 24V14.768C86.68 13.936 86.92 13.2747 87.4 12.784C87.8907 12.2827 88.584 12.032 89.48 12.032C89.8107 12.032 90.1253 12.0747 90.424 12.16C90.7333 12.2347 90.9947 12.3573 91.208 12.528L90.744 13.696C90.584 13.568 90.4027 13.472 90.2 13.408C89.9973 13.3333 89.784 13.296 89.56 13.296C89.112 13.296 88.7707 13.424 88.536 13.68C88.3013 13.9253 88.184 14.2933 88.184 14.784V15.92L88.216 16.624V24H86.68ZM85.24 16.784V15.52H90.648V16.784H85.24ZM92.0966 24V15.52H93.5686V17.824L93.4246 17.248C93.6593 16.6613 94.054 16.2133 94.6086 15.904C95.1633 15.5947 95.846 15.44 96.6566 15.44V16.928C96.5926 16.9173 96.5286 16.912 96.4646 16.912C96.4113 16.912 96.358 16.912 96.3046 16.912C95.4833 16.912 94.8326 17.1573 94.3526 17.648C93.8726 18.1387 93.6326 18.848 93.6326 19.776V24H92.0966ZM102.104 24.096C101.25 24.096 100.493 23.9093 99.8316 23.536C99.1703 23.1627 98.6476 22.6507 98.2636 22C97.8796 21.3387 97.6876 20.592 97.6876 19.76C97.6876 18.9173 97.8796 18.1707 98.2636 17.52C98.6476 16.8693 99.1703 16.3627 99.8316 16C100.493 15.6267 101.25 15.44 102.104 15.44C102.946 15.44 103.698 15.6267 104.36 16C105.032 16.3627 105.554 16.8693 105.928 17.52C106.312 18.16 106.504 18.9067 106.504 19.76C106.504 20.6027 106.312 21.3493 105.928 22C105.554 22.6507 105.032 23.1627 104.36 23.536C103.698 23.9093 102.946 24.096 102.104 24.096ZM102.104 22.752C102.648 22.752 103.133 22.6293 103.56 22.384C103.997 22.1387 104.338 21.792 104.584 21.344C104.829 20.8853 104.952 20.3573 104.952 19.76C104.952 19.152 104.829 18.6293 104.584 18.192C104.338 17.744 103.997 17.3973 103.56 17.152C103.133 16.9067 102.648 16.784 102.104 16.784C101.56 16.784 101.074 16.9067 100.648 17.152C100.221 17.3973 99.8796 17.744 99.6236 18.192C99.3676 18.6293 99.2396 19.152 99.2396 19.76C99.2396 20.3573 99.3676 20.8853 99.6236 21.344C99.8796 21.792 100.221 22.1387 100.648 22.384C101.074 22.6293 101.56 22.752 102.104 22.752ZM119.236 15.44C119.919 15.44 120.521 15.5733 121.044 15.84C121.567 16.1067 121.972 16.512 122.26 17.056C122.559 17.6 122.708 18.288 122.708 19.12V24H121.172V19.296C121.172 18.4747 120.98 17.856 120.596 17.44C120.212 17.024 119.673 16.816 118.98 16.816C118.468 16.816 118.02 16.9227 117.636 17.136C117.252 17.3493 116.953 17.664 116.74 18.08C116.537 18.496 116.436 19.0133 116.436 19.632V24H114.9V19.296C114.9 18.4747 114.708 17.856 114.324 17.44C113.951 17.024 113.412 16.816 112.708 16.816C112.207 16.816 111.764 16.9227 111.38 17.136C110.996 17.3493 110.697 17.664 110.484 18.08C110.271 18.496 110.164 19.0133 110.164 19.632V24H108.628V15.52H110.1V17.776L109.86 17.2C110.127 16.6453 110.537 16.2133 111.092 15.904C111.647 15.5947 112.292 15.44 113.028 15.44C113.839 15.44 114.537 15.6427 115.124 16.048C115.711 16.4427 116.095 17.0453 116.276 17.856L115.652 17.6C115.908 16.9493 116.356 16.4267 116.996 16.032C117.636 15.6373 118.383 15.44 119.236 15.44Z" fill="#8B8B8B"/>
<path d="M203 0.5H303C306.038 0.5 308.5 2.96243 308.5 6V30C308.5 33.0376 306.038 35.5 303 35.5H203C199.962 35.5 197.5 33.0376 197.5 30V6C197.5 2.96243 199.962 0.5 203 0.5Z" stroke="#DDDDDD"/>
<path d="M217.368 24.096C216.515 24.096 215.853 23.8667 215.384 23.408C214.915 22.9493 214.68 22.2933 214.68 21.44V13.664H216.216V21.376C216.216 21.8347 216.328 22.1867 216.552 22.432C216.787 22.6773 217.117 22.8 217.544 22.8C218.024 22.8 218.424 22.6667 218.744 22.4L219.224 23.504C218.989 23.7067 218.707 23.856 218.376 23.952C218.056 24.048 217.72 24.096 217.368 24.096ZM213.24 16.784V15.52H218.648V16.784H213.24ZM224.432 24.096C223.578 24.096 222.821 23.9093 222.16 23.536C221.498 23.1627 220.976 22.6507 220.592 22C220.208 21.3387 220.016 20.592 220.016 19.76C220.016 18.9173 220.208 18.1707 220.592 17.52C220.976 16.8693 221.498 16.3627 222.16 16C222.821 15.6267 223.578 15.44 224.432 15.44C225.274 15.44 226.026 15.6267 226.688 16C227.36 16.3627 227.882 16.8693 228.256 17.52C228.64 18.16 228.832 18.9067 228.832 19.76C228.832 20.6027 228.64 21.3493 228.256 22C227.882 22.6507 227.36 23.1627 226.688 23.536C226.026 23.9093 225.274 24.096 224.432 24.096ZM224.432 22.752C224.976 22.752 225.461 22.6293 225.888 22.384C226.325 22.1387 226.666 21.792 226.912 21.344C227.157 20.8853 227.28 20.3573 227.28 19.76C227.28 19.152 227.157 18.6293 226.912 18.192C226.666 17.744 226.325 17.3973 225.888 17.152C225.461 16.9067 224.976 16.784 224.432 16.784C223.888 16.784 223.402 16.9067 222.976 17.152C222.549 17.3973 222.208 17.744 221.952 18.192C221.696 18.6293 221.568 19.152 221.568 19.76C221.568 20.3573 221.696 20.8853 221.952 21.344C222.208 21.792 222.549 22.1387 222.976 22.384C223.402 22.6293 223.888 22.752 224.432 22.752Z" fill="#8B8B8B"/>
<path d="M350.88 25V11H357C358.52 11 359.853 11.2933 361 11.88C362.147 12.4667 363.04 13.28 363.68 14.32C364.32 15.36 364.64 16.5867 364.64 18C364.64 19.4 364.32 20.6267 363.68 21.68C363.04 22.72 362.147 23.5333 361 24.12C359.853 24.7067 358.52 25 357 25H350.88ZM353.48 22.8H356.88C357.933 22.8 358.84 22.6 359.6 22.2C360.373 21.8 360.967 21.24 361.38 20.52C361.807 19.8 362.02 18.96 362.02 18C362.02 17.0267 361.807 16.1867 361.38 15.48C360.967 14.76 360.373 14.2 359.6 13.8C358.84 13.4 357.933 13.2 356.88 13.2H353.48V22.8ZM367.163 25V14.32H369.663V25H367.163ZM368.423 12.56C367.957 12.56 367.57 12.4133 367.263 12.12C366.97 11.8267 366.823 11.4733 366.823 11.06C366.823 10.6333 366.97 10.28 367.263 10C367.57 9.70667 367.957 9.56 368.423 9.56C368.89 9.56 369.27 9.7 369.563 9.98C369.87 10.2467 370.023 10.5867 370.023 11C370.023 11.44 369.877 11.8133 369.583 12.12C369.29 12.4133 368.903 12.56 368.423 12.56ZM376.245 25.14C375.351 25.14 374.491 25.0267 373.665 24.8C372.851 24.56 372.205 24.2733 371.725 23.94L372.685 22.04C373.165 22.3467 373.738 22.6 374.405 22.8C375.071 23 375.738 23.1 376.405 23.1C377.191 23.1 377.758 22.9933 378.105 22.78C378.465 22.5667 378.645 22.28 378.645 21.92C378.645 21.6267 378.525 21.4067 378.285 21.26C378.045 21.1 377.731 20.98 377.345 20.9C376.958 20.82 376.525 20.7467 376.045 20.68C375.578 20.6133 375.105 20.5267 374.625 20.42C374.158 20.3 373.731 20.1333 373.345 19.92C372.958 19.6933 372.645 19.3933 372.405 19.02C372.165 18.6467 372.045 18.1533 372.045 17.54C372.045 16.86 372.238 16.2733 372.625 15.78C373.011 15.2733 373.551 14.8867 374.245 14.62C374.951 14.34 375.785 14.2 376.745 14.2C377.465 14.2 378.191 14.28 378.925 14.44C379.658 14.6 380.265 14.8267 380.745 15.12L379.785 17.02C379.278 16.7133 378.765 16.5067 378.245 16.4C377.738 16.28 377.231 16.22 376.725 16.22C375.965 16.22 375.398 16.3333 375.025 16.56C374.665 16.7867 374.485 17.0733 374.485 17.42C374.485 17.74 374.605 17.98 374.845 18.14C375.085 18.3 375.398 18.4267 375.785 18.52C376.171 18.6133 376.598 18.6933 377.065 18.76C377.545 18.8133 378.018 18.9 378.485 19.02C378.951 19.14 379.378 19.3067 379.765 19.52C380.165 19.72 380.485 20.0067 380.725 20.38C380.965 20.7533 381.085 21.24 381.085 21.84C381.085 22.5067 380.885 23.0867 380.485 23.58C380.098 24.0733 379.545 24.46 378.825 24.74C378.105 25.0067 377.245 25.14 376.245 25.14ZM388.138 25.14C387.018 25.14 386.018 24.9067 385.138 24.44C384.271 23.96 383.591 23.3067 383.098 22.48C382.604 21.6533 382.358 20.7133 382.358 19.66C382.358 18.5933 382.604 17.6533 383.098 16.84C383.591 16.0133 384.271 15.3667 385.138 14.9C386.018 14.4333 387.018 14.2 388.138 14.2C389.178 14.2 390.091 14.4133 390.878 14.84C391.678 15.2533 392.284 15.8667 392.698 16.68L390.778 17.8C390.458 17.2933 390.064 16.92 389.598 16.68C389.144 16.44 388.651 16.32 388.118 16.32C387.504 16.32 386.951 16.4533 386.458 16.72C385.964 16.9867 385.578 17.3733 385.298 17.88C385.018 18.3733 384.878 18.9667 384.878 19.66C384.878 20.3533 385.018 20.9533 385.298 21.46C385.578 21.9533 385.964 22.3333 386.458 22.6C386.951 22.8667 387.504 23 388.118 23C388.651 23 389.144 22.88 389.598 22.64C390.064 22.4 390.458 22.0267 390.778 21.52L392.698 22.64C392.284 23.44 391.678 24.06 390.878 24.5C390.091 24.9267 389.178 25.14 388.138 25.14ZM399.503 25.14C398.409 25.14 397.436 24.9067 396.583 24.44C395.729 23.96 395.056 23.3067 394.563 22.48C394.069 21.6533 393.823 20.7133 393.823 19.66C393.823 18.5933 394.069 17.6533 394.563 16.84C395.056 16.0133 395.729 15.3667 396.583 14.9C397.436 14.4333 398.409 14.2 399.503 14.2C400.609 14.2 401.589 14.4333 402.443 14.9C403.309 15.3667 403.983 16.0067 404.463 16.82C404.956 17.6333 405.203 18.58 405.203 19.66C405.203 20.7133 404.956 21.6533 404.463 22.48C403.983 23.3067 403.309 23.96 402.443 24.44C401.589 24.9067 400.609 25.14 399.503 25.14ZM399.503 23C400.116 23 400.663 22.8667 401.143 22.6C401.623 22.3333 401.996 21.9467 402.263 21.44C402.543 20.9333 402.683 20.34 402.683 19.66C402.683 18.9667 402.543 18.3733 402.263 17.88C401.996 17.3733 401.623 16.9867 401.143 16.72C400.663 16.4533 400.123 16.32 399.523 16.32C398.909 16.32 398.363 16.4533 397.883 16.72C397.416 16.9867 397.043 17.3733 396.763 17.88C396.483 18.3733 396.343 18.9667 396.343 19.66C396.343 20.34 396.483 20.9333 396.763 21.44C397.043 21.9467 397.416 22.3333 397.883 22.6C398.363 22.8667 398.903 23 399.503 23ZM412.113 25.14C411.206 25.14 410.406 24.9733 409.713 24.64C409.02 24.2933 408.48 23.7733 408.093 23.08C407.706 22.3733 407.513 21.4867 407.513 20.42V14.32H410.013V20.08C410.013 21.04 410.226 21.76 410.653 22.24C411.093 22.7067 411.713 22.94 412.513 22.94C413.1 22.94 413.606 22.82 414.033 22.58C414.473 22.34 414.813 21.98 415.053 21.5C415.306 21.02 415.433 20.4267 415.433 19.72V14.32H417.933V25H415.553V22.12L415.973 23C415.613 23.6933 415.086 24.2267 414.393 24.6C413.7 24.96 412.94 25.14 412.113 25.14ZM427.266 14.2C428.12 14.2 428.88 14.3667 429.546 14.7C430.226 15.0333 430.76 15.5467 431.146 16.24C431.533 16.92 431.726 17.8 431.726 18.88V25H429.226V19.2C429.226 18.2533 429 17.5467 428.546 17.08C428.106 16.6133 427.486 16.38 426.686 16.38C426.1 16.38 425.58 16.5 425.126 16.74C424.673 16.98 424.32 17.34 424.066 17.82C423.826 18.2867 423.706 18.88 423.706 19.6V25H421.206V14.32H423.586V17.2L423.166 16.32C423.54 15.64 424.08 15.12 424.786 14.76C425.506 14.3867 426.333 14.2 427.266 14.2ZM438.918 25.14C437.744 25.14 436.838 24.84 436.198 24.24C435.558 23.6267 435.238 22.7267 435.238 21.54V11.96H437.738V21.48C437.738 21.9867 437.864 22.38 438.118 22.66C438.384 22.94 438.751 23.08 439.218 23.08C439.778 23.08 440.244 22.9333 440.618 22.64L441.318 24.42C441.024 24.66 440.664 24.84 440.238 24.96C439.811 25.08 439.371 25.14 438.918 25.14ZM433.478 16.4V14.4H440.598V16.4H433.478ZM448.043 25.14C446.856 25.14 445.816 24.9067 444.923 24.44C444.043 23.96 443.356 23.3067 442.863 22.48C442.383 21.6533 442.143 20.7133 442.143 19.66C442.143 18.5933 442.376 17.6533 442.843 16.84C443.323 16.0133 443.976 15.3667 444.803 14.9C445.643 14.4333 446.596 14.2 447.663 14.2C448.703 14.2 449.629 14.4267 450.443 14.88C451.256 15.3333 451.896 15.9733 452.363 16.8C452.829 17.6267 453.063 18.6 453.063 19.72C453.063 19.8267 453.056 19.9467 453.043 20.08C453.043 20.2133 453.036 20.34 453.023 20.46H444.123V18.8H451.703L450.723 19.32C450.736 18.7067 450.609 18.1667 450.343 17.7C450.076 17.2333 449.709 16.8667 449.243 16.6C448.789 16.3333 448.263 16.2 447.663 16.2C447.049 16.2 446.509 16.3333 446.043 16.6C445.589 16.8667 445.229 17.24 444.963 17.72C444.709 18.1867 444.583 18.74 444.583 19.38V19.78C444.583 20.42 444.729 20.9867 445.023 21.48C445.316 21.9733 445.729 22.3533 446.263 22.62C446.796 22.8867 447.409 23.02 448.103 23.02C448.703 23.02 449.243 22.9267 449.723 22.74C450.203 22.5533 450.629 22.26 451.003 21.86L452.343 23.4C451.863 23.96 451.256 24.3933 450.523 24.7C449.803 24.9933 448.976 25.14 448.043 25.14ZM459.984 25.14C458.958 25.14 458.031 24.9133 457.204 24.46C456.391 23.9933 455.751 23.3533 455.284 22.54C454.818 21.7267 454.584 20.7667 454.584 19.66C454.584 18.5533 454.818 17.5933 455.284 16.78C455.751 15.9667 456.391 15.3333 457.204 14.88C458.031 14.4267 458.958 14.2 459.984 14.2C460.878 14.2 461.678 14.4 462.384 14.8C463.091 15.1867 463.651 15.78 464.064 16.58C464.478 17.38 464.684 18.4067 464.684 19.66C464.684 20.9 464.484 21.9267 464.084 22.74C463.684 23.54 463.131 24.14 462.424 24.54C461.718 24.94 460.904 25.14 459.984 25.14ZM460.284 23C460.884 23 461.418 22.8667 461.884 22.6C462.364 22.3333 462.744 21.9467 463.024 21.44C463.318 20.9333 463.464 20.34 463.464 19.66C463.464 18.9667 463.318 18.3733 463.024 17.88C462.744 17.3733 462.364 16.9867 461.884 16.72C461.418 16.4533 460.884 16.32 460.284 16.32C459.684 16.32 459.144 16.4533 458.664 16.72C458.198 16.9867 457.818 17.3733 457.524 17.88C457.244 18.3733 457.104 18.9667 457.104 19.66C457.104 20.34 457.244 20.9333 457.524 21.44C457.818 21.9467 458.198 22.3333 458.664 22.6C459.144 22.8667 459.684 23 460.284 23ZM463.524 25V22.48L463.624 19.64L463.424 16.8V10.16H465.904V25H463.524ZM474.722 25V14.32H477.222V25H474.722ZM475.982 12.56C475.515 12.56 475.129 12.4133 474.822 12.12C474.529 11.8267 474.382 11.4733 474.382 11.06C474.382 10.6333 474.529 10.28 474.822 10C475.129 9.70667 475.515 9.56 475.982 9.56C476.449 9.56 476.829 9.7 477.122 9.98C477.429 10.2467 477.582 10.5867 477.582 11C477.582 11.44 477.435 11.8133 477.142 12.12C476.849 12.4133 476.462 12.56 475.982 12.56ZM484.523 25.14C483.35 25.14 482.443 24.84 481.803 24.24C481.163 23.6267 480.843 22.7267 480.843 21.54V11.96H483.343V21.48C483.343 21.9867 483.47 22.38 483.723 22.66C483.99 22.94 484.357 23.08 484.823 23.08C485.383 23.08 485.85 22.9333 486.223 22.64L486.923 24.42C486.63 24.66 486.27 24.84 485.843 24.96C485.417 25.08 484.977 25.14 484.523 25.14ZM479.083 16.4V14.4H486.203V16.4H479.083ZM493.648 25.14C492.462 25.14 491.422 24.9067 490.528 24.44C489.648 23.96 488.962 23.3067 488.468 22.48C487.988 21.6533 487.748 20.7133 487.748 19.66C487.748 18.5933 487.982 17.6533 488.448 16.84C488.928 16.0133 489.582 15.3667 490.408 14.9C491.248 14.4333 492.202 14.2 493.268 14.2C494.308 14.2 495.235 14.4267 496.048 14.88C496.862 15.3333 497.502 15.9733 497.968 16.8C498.435 17.6267 498.668 18.6 498.668 19.72C498.668 19.8267 498.662 19.9467 498.648 20.08C498.648 20.2133 498.642 20.34 498.628 20.46H489.728V18.8H497.308L496.328 19.32C496.342 18.7067 496.215 18.1667 495.948 17.7C495.682 17.2333 495.315 16.8667 494.848 16.6C494.395 16.3333 493.868 16.2 493.268 16.2C492.655 16.2 492.115 16.3333 491.648 16.6C491.195 16.8667 490.835 17.24 490.568 17.72C490.315 18.1867 490.188 18.74 490.188 19.38V19.78C490.188 20.42 490.335 20.9867 490.628 21.48C490.922 21.9733 491.335 22.3533 491.868 22.62C492.402 22.8867 493.015 23.02 493.708 23.02C494.308 23.02 494.848 22.9267 495.328 22.74C495.808 22.5533 496.235 22.26 496.608 21.86L497.948 23.4C497.468 23.96 496.862 24.3933 496.128 24.7C495.408 24.9933 494.582 25.14 493.648 25.14ZM514.55 14.2C515.403 14.2 516.156 14.3667 516.81 14.7C517.476 15.0333 517.996 15.5467 518.37 16.24C518.743 16.92 518.93 17.8 518.93 18.88V25H516.43V19.2C516.43 18.2533 516.223 17.5467 515.81 17.08C515.396 16.6133 514.803 16.38 514.03 16.38C513.483 16.38 512.996 16.5 512.57 16.74C512.156 16.98 511.83 17.3333 511.59 17.8C511.363 18.2667 511.25 18.86 511.25 19.58V25H508.75V19.2C508.75 18.2533 508.543 17.5467 508.13 17.08C507.716 16.6133 507.123 16.38 506.35 16.38C505.803 16.38 505.316 16.5 504.89 16.74C504.476 16.98 504.15 17.3333 503.91 17.8C503.683 18.2667 503.57 18.86 503.57 19.58V25H501.07V14.32H503.45V17.16L503.03 16.32C503.39 15.6267 503.91 15.1 504.59 14.74C505.283 14.38 506.07 14.2 506.95 14.2C507.95 14.2 508.816 14.4467 509.55 14.94C510.296 15.4333 510.79 16.18 511.03 17.18L510.05 16.84C510.396 16.04 510.97 15.4 511.77 14.92C512.57 14.44 513.496 14.2 514.55 14.2ZM525.424 25.14C524.531 25.14 523.671 25.0267 522.844 24.8C522.031 24.56 521.384 24.2733 520.904 23.94L521.864 22.04C522.344 22.3467 522.918 22.6 523.584 22.8C524.251 23 524.918 23.1 525.584 23.1C526.371 23.1 526.938 22.9933 527.284 22.78C527.644 22.5667 527.824 22.28 527.824 21.92C527.824 21.6267 527.704 21.4067 527.464 21.26C527.224 21.1 526.911 20.98 526.524 20.9C526.138 20.82 525.704 20.7467 525.224 20.68C524.758 20.6133 524.284 20.5267 523.804 20.42C523.338 20.3 522.911 20.1333 522.524 19.92C522.138 19.6933 521.824 19.3933 521.584 19.02C521.344 18.6467 521.224 18.1533 521.224 17.54C521.224 16.86 521.418 16.2733 521.804 15.78C522.191 15.2733 522.731 14.8867 523.424 14.62C524.131 14.34 524.964 14.2 525.924 14.2C526.644 14.2 527.371 14.28 528.104 14.44C528.838 14.6 529.444 14.8267 529.924 15.12L528.964 17.02C528.458 16.7133 527.944 16.5067 527.424 16.4C526.918 16.28 526.411 16.22 525.904 16.22C525.144 16.22 524.578 16.3333 524.204 16.56C523.844 16.7867 523.664 17.0733 523.664 17.42C523.664 17.74 523.784 17.98 524.024 18.14C524.264 18.3 524.578 18.4267 524.964 18.52C525.351 18.6133 525.778 18.6933 526.244 18.76C526.724 18.8133 527.198 18.9 527.664 19.02C528.131 19.14 528.558 19.3067 528.944 19.52C529.344 19.72 529.664 20.0067 529.904 20.38C530.144 20.7533 530.264 21.24 530.264 21.84C530.264 22.5067 530.064 23.0867 529.664 23.58C529.278 24.0733 528.724 24.46 528.004 24.74C527.284 25.0067 526.424 25.14 525.424 25.14Z" fill="#282828"/>
<path d="M553 0.5H577C580.038 0.5 582.5 2.96243 582.5 6V30C582.5 33.0376 580.038 35.5 577 35.5H553C549.962 35.5 547.5 33.0376 547.5 30V6C547.5 2.96243 549.962 0.5 553 0.5Z" stroke="#DDDDDD"/>
<path d="M629.22 25.2C628.127 25.2 627.08 25.0467 626.08 24.74C625.08 24.42 624.287 24.0133 623.7 23.52L624.6 21.5C625.16 21.94 625.853 22.3067 626.68 22.6C627.507 22.8933 628.353 23.04 629.22 23.04C629.953 23.04 630.547 22.96 631 22.8C631.453 22.64 631.787 22.4267 632 22.16C632.213 21.88 632.32 21.5667 632.32 21.22C632.32 20.7933 632.167 20.4533 631.86 20.2C631.553 19.9333 631.153 19.7267 630.66 19.58C630.18 19.42 629.64 19.2733 629.04 19.14C628.453 19.0067 627.86 18.8533 627.26 18.68C626.673 18.4933 626.133 18.26 625.64 17.98C625.16 17.6867 624.767 17.3 624.46 16.82C624.153 16.34 624 15.7267 624 14.98C624 14.22 624.2 13.5267 624.6 12.9C625.013 12.26 625.633 11.7533 626.46 11.38C627.3 10.9933 628.36 10.8 629.64 10.8C630.48 10.8 631.313 10.9067 632.14 11.12C632.967 11.3333 633.687 11.64 634.3 12.04L633.48 14.06C632.853 13.6867 632.207 13.4133 631.54 13.24C630.873 13.0533 630.233 12.96 629.62 12.96C628.9 12.96 628.313 13.0467 627.86 13.22C627.42 13.3933 627.093 13.62 626.88 13.9C626.68 14.18 626.58 14.5 626.58 14.86C626.58 15.2867 626.727 15.6333 627.02 15.9C627.327 16.1533 627.72 16.3533 628.2 16.5C628.693 16.6467 629.24 16.7933 629.84 16.94C630.44 17.0733 631.033 17.2267 631.62 17.4C632.22 17.5733 632.76 17.8 633.24 18.08C633.733 18.36 634.127 18.74 634.42 19.22C634.727 19.7 634.88 20.3067 634.88 21.04C634.88 21.7867 634.673 22.48 634.26 23.12C633.86 23.7467 633.24 24.2533 632.4 24.64C631.56 25.0133 630.5 25.2 629.22 25.2ZM642.018 25.14C640.925 25.14 639.951 24.9067 639.098 24.44C638.245 23.96 637.571 23.3067 637.078 22.48C636.585 21.6533 636.338 20.7133 636.338 19.66C636.338 18.5933 636.585 17.6533 637.078 16.84C637.571 16.0133 638.245 15.3667 639.098 14.9C639.951 14.4333 640.925 14.2 642.018 14.2C643.125 14.2 644.105 14.4333 644.958 14.9C645.825 15.3667 646.498 16.0067 646.978 16.82C647.471 17.6333 647.718 18.58 647.718 19.66C647.718 20.7133 647.471 21.6533 646.978 22.48C646.498 23.3067 645.825 23.96 644.958 24.44C644.105 24.9067 643.125 25.14 642.018 25.14ZM642.018 23C642.631 23 643.178 22.8667 643.658 22.6C644.138 22.3333 644.511 21.9467 644.778 21.44C645.058 20.9333 645.198 20.34 645.198 19.66C645.198 18.9667 645.058 18.3733 644.778 17.88C644.511 17.3733 644.138 16.9867 643.658 16.72C643.178 16.4533 642.638 16.32 642.038 16.32C641.425 16.32 640.878 16.4533 640.398 16.72C639.931 16.9867 639.558 17.3733 639.278 17.88C638.998 18.3733 638.858 18.9667 638.858 19.66C638.858 20.34 638.998 20.9333 639.278 21.44C639.558 21.9467 639.931 22.3333 640.398 22.6C640.878 22.8667 641.418 23 642.018 23ZM650.109 25V14.32H652.489V17.26L652.209 16.4C652.529 15.68 653.029 15.1333 653.709 14.76C654.402 14.3867 655.262 14.2 656.289 14.2V16.58C656.182 16.5533 656.082 16.54 655.989 16.54C655.895 16.5267 655.802 16.52 655.709 16.52C654.762 16.52 654.009 16.8 653.449 17.36C652.889 17.9067 652.609 18.7267 652.609 19.82V25H650.109ZM662.82 25.14C661.647 25.14 660.74 24.84 660.1 24.24C659.46 23.6267 659.14 22.7267 659.14 21.54V11.96H661.64V21.48C661.64 21.9867 661.767 22.38 662.02 22.66C662.287 22.94 662.653 23.08 663.12 23.08C663.68 23.08 664.147 22.9333 664.52 22.64L665.22 24.42C664.927 24.66 664.567 24.84 664.14 24.96C663.713 25.08 663.273 25.14 662.82 25.14ZM657.38 16.4V14.4H664.5V16.4H657.38ZM671.945 25.14C670.758 25.14 669.718 24.9067 668.825 24.44C667.945 23.96 667.258 23.3067 666.765 22.48C666.285 21.6533 666.045 20.7133 666.045 19.66C666.045 18.5933 666.278 17.6533 666.745 16.84C667.225 16.0133 667.878 15.3667 668.705 14.9C669.545 14.4333 670.498 14.2 671.565 14.2C672.605 14.2 673.532 14.4267 674.345 14.88C675.158 15.3333 675.798 15.9733 676.265 16.8C676.732 17.6267 676.965 18.6 676.965 19.72C676.965 19.8267 676.958 19.9467 676.945 20.08C676.945 20.2133 676.938 20.34 676.925 20.46H668.025V18.8H675.605L674.625 19.32C674.638 18.7067 674.512 18.1667 674.245 17.7C673.978 17.2333 673.612 16.8667 673.145 16.6C672.692 16.3333 672.165 16.2 671.565 16.2C670.952 16.2 670.412 16.3333 669.945 16.6C669.492 16.8667 669.132 17.24 668.865 17.72C668.612 18.1867 668.485 18.74 668.485 19.38V19.78C668.485 20.42 668.632 20.9867 668.925 21.48C669.218 21.9733 669.632 22.3533 670.165 22.62C670.698 22.8867 671.312 23.02 672.005 23.02C672.605 23.02 673.145 22.9267 673.625 22.74C674.105 22.5533 674.532 22.26 674.905 21.86L676.245 23.4C675.765 23.96 675.158 24.3933 674.425 24.7C673.705 24.9933 672.878 25.14 671.945 25.14ZM683.887 25.14C682.86 25.14 681.933 24.9133 681.107 24.46C680.293 23.9933 679.653 23.3533 679.187 22.54C678.72 21.7267 678.487 20.7667 678.487 19.66C678.487 18.5533 678.72 17.5933 679.187 16.78C679.653 15.9667 680.293 15.3333 681.107 14.88C681.933 14.4267 682.86 14.2 683.887 14.2C684.78 14.2 685.58 14.4 686.287 14.8C686.993 15.1867 687.553 15.78 687.967 16.58C688.38 17.38 688.587 18.4067 688.587 19.66C688.587 20.9 688.387 21.9267 687.987 22.74C687.587 23.54 687.033 24.14 686.327 24.54C685.62 24.94 684.807 25.14 683.887 25.14ZM684.187 23C684.787 23 685.32 22.8667 685.787 22.6C686.267 22.3333 686.647 21.9467 686.927 21.44C687.22 20.9333 687.367 20.34 687.367 19.66C687.367 18.9667 687.22 18.3733 686.927 17.88C686.647 17.3733 686.267 16.9867 685.787 16.72C685.32 16.4533 684.787 16.32 684.187 16.32C683.587 16.32 683.047 16.4533 682.567 16.72C682.1 16.9867 681.72 17.3733 681.427 17.88C681.147 18.3733 681.007 18.9667 681.007 19.66C681.007 20.34 681.147 20.9333 681.427 21.44C681.72 21.9467 682.1 22.3333 682.567 22.6C683.047 22.8667 683.587 23 684.187 23ZM687.427 25V22.48L687.527 19.64L687.327 16.8V10.16H689.807V25H687.427Z" fill="#282828"/>
<path d="M714 0.5H902C905.038 0.5 907.5 2.96243 907.5 6V30C907.5 33.0376 905.038 35.5 902 35.5H714C710.962 35.5 708.5 33.0376 708.5 30V6C708.5 2.96243 710.962 0.5 714 0.5Z" stroke="#DDDDDD"/>
<path d="M729.952 24.096C729.227 24.096 728.571 23.936 727.984 23.616C727.408 23.2853 726.949 22.8 726.608 22.16C726.277 21.52 726.112 20.72 726.112 19.76C726.112 18.8 726.283 18 726.624 17.36C726.976 16.72 727.44 16.24 728.016 15.92C728.603 15.6 729.248 15.44 729.952 15.44C730.784 15.44 731.52 15.6213 732.16 15.984C732.8 16.3467 733.307 16.8533 733.68 17.504C734.053 18.144 734.24 18.896 734.24 19.76C734.24 20.624 734.053 21.3813 733.68 22.032C733.307 22.6827 732.8 23.1893 732.16 23.552C731.52 23.9147 730.784 24.096 729.952 24.096ZM725.456 24V12.128H726.992V17.776L726.832 19.744L726.928 21.712V24H725.456ZM729.824 22.752C730.368 22.752 730.853 22.6293 731.28 22.384C731.717 22.1387 732.059 21.792 732.304 21.344C732.56 20.8853 732.688 20.3573 732.688 19.76C732.688 19.152 732.56 18.6293 732.304 18.192C732.059 17.744 731.717 17.3973 731.28 17.152C730.853 16.9067 730.368 16.784 729.824 16.784C729.291 16.784 728.805 16.9067 728.368 17.152C727.941 17.3973 727.6 17.744 727.344 18.192C727.099 18.6293 726.976 19.152 726.976 19.76C726.976 20.3573 727.099 20.8853 727.344 21.344C727.6 21.792 727.941 22.1387 728.368 22.384C728.805 22.6293 729.291 22.752 729.824 22.752ZM736.496 27.2C736.091 27.2 735.696 27.1307 735.312 26.992C734.928 26.864 734.597 26.672 734.32 26.416L734.976 25.264C735.189 25.4667 735.424 25.6213 735.68 25.728C735.936 25.8347 736.208 25.888 736.496 25.888C736.869 25.888 737.179 25.792 737.424 25.6C737.669 25.408 737.899 25.0667 738.112 24.576L738.64 23.408L738.8 23.216L742.128 15.52H743.632L739.52 24.848C739.275 25.4453 738.997 25.9147 738.688 26.256C738.389 26.5973 738.059 26.8373 737.696 26.976C737.333 27.1253 736.933 27.2 736.496 27.2ZM738.512 24.272L734.64 15.52H736.24L739.536 23.072L738.512 24.272ZM752.866 24.096C752.045 24.096 751.309 23.9147 750.658 23.552C750.018 23.1893 749.512 22.6827 749.138 22.032C748.765 21.3813 748.578 20.624 748.578 19.76C748.578 18.896 748.765 18.144 749.138 17.504C749.512 16.8533 750.018 16.3467 750.658 15.984C751.309 15.6213 752.045 15.44 752.866 15.44C753.581 15.44 754.226 15.6 754.802 15.92C755.378 16.24 755.837 16.72 756.178 17.36C756.53 18 756.706 18.8 756.706 19.76C756.706 20.72 756.536 21.52 756.194 22.16C755.864 22.8 755.41 23.2853 754.834 23.616C754.258 23.936 753.602 24.096 752.866 24.096ZM752.994 22.752C753.528 22.752 754.008 22.6293 754.434 22.384C754.872 22.1387 755.213 21.792 755.458 21.344C755.714 20.8853 755.842 20.3573 755.842 19.76C755.842 19.152 755.714 18.6293 755.458 18.192C755.213 17.744 754.872 17.3973 754.434 17.152C754.008 16.9067 753.528 16.784 752.994 16.784C752.45 16.784 751.965 16.9067 751.538 17.152C751.112 17.3973 750.77 17.744 750.514 18.192C750.258 18.6293 750.13 19.152 750.13 19.76C750.13 20.3573 750.258 20.8853 750.514 21.344C750.77 21.792 751.112 22.1387 751.538 22.384C751.965 22.6293 752.45 22.752 752.994 22.752ZM755.89 24V21.712L755.986 19.744L755.826 17.776V12.128H757.362V24H755.89ZM764.045 24.096C763.138 24.096 762.338 23.9093 761.645 23.536C760.962 23.1627 760.429 22.6507 760.045 22C759.671 21.3493 759.485 20.6027 759.485 19.76C759.485 18.9173 759.666 18.1707 760.029 17.52C760.402 16.8693 760.909 16.3627 761.549 16C762.199 15.6267 762.93 15.44 763.741 15.44C764.562 15.44 765.287 15.6213 765.917 15.984C766.546 16.3467 767.037 16.8587 767.389 17.52C767.751 18.1707 767.933 18.9333 767.933 19.808C767.933 19.872 767.927 19.9467 767.917 20.032C767.917 20.1173 767.911 20.1973 767.901 20.272H760.685V19.168H767.101L766.477 19.552C766.487 19.008 766.375 18.5227 766.141 18.096C765.906 17.6693 765.581 17.3387 765.165 17.104C764.759 16.8587 764.285 16.736 763.741 16.736C763.207 16.736 762.733 16.8587 762.317 17.104C761.901 17.3387 761.575 17.6747 761.341 18.112C761.106 18.5387 760.989 19.0293 760.989 19.584V19.84C760.989 20.4053 761.117 20.912 761.373 21.36C761.639 21.7973 762.007 22.1387 762.477 22.384C762.946 22.6293 763.485 22.752 764.093 22.752C764.594 22.752 765.047 22.6667 765.453 22.496C765.869 22.3253 766.231 22.0693 766.541 21.728L767.389 22.72C767.005 23.168 766.525 23.5093 765.949 23.744C765.383 23.9787 764.749 24.096 764.045 24.096ZM770.289 24V14.768C770.289 13.936 770.529 13.2747 771.009 12.784C771.5 12.2827 772.193 12.032 773.089 12.032C773.42 12.032 773.735 12.0747 774.033 12.16C774.343 12.2347 774.604 12.3573 774.817 12.528L774.353 13.696C774.193 13.568 774.012 13.472 773.809 13.408C773.607 13.3333 773.393 13.296 773.169 13.296C772.721 13.296 772.38 13.424 772.145 13.68C771.911 13.9253 771.793 14.2933 771.793 14.784V15.92L771.825 16.624V24H770.289ZM768.849 16.784V15.52H774.257V16.784H768.849ZM780.814 24V22.208L780.734 21.872V18.816C780.734 18.1653 780.542 17.664 780.158 17.312C779.784 16.9493 779.219 16.768 778.462 16.768C777.96 16.768 777.47 16.8533 776.99 17.024C776.51 17.184 776.104 17.4027 775.774 17.68L775.134 16.528C775.571 16.176 776.094 15.9093 776.702 15.728C777.32 15.536 777.966 15.44 778.638 15.44C779.8 15.44 780.696 15.7227 781.326 16.288C781.955 16.8533 782.27 17.7173 782.27 18.88V24H780.814ZM778.03 24.096C777.4 24.096 776.846 23.9893 776.366 23.776C775.896 23.5627 775.534 23.2693 775.278 22.896C775.022 22.512 774.894 22.08 774.894 21.6C774.894 21.1413 775 20.7253 775.214 20.352C775.438 19.9787 775.795 19.68 776.286 19.456C776.787 19.232 777.459 19.12 778.302 19.12H780.99V20.224H778.366C777.598 20.224 777.08 20.352 776.814 20.608C776.547 20.864 776.414 21.1733 776.414 21.536C776.414 21.952 776.579 22.288 776.91 22.544C777.24 22.7893 777.699 22.912 778.286 22.912C778.862 22.912 779.363 22.784 779.79 22.528C780.227 22.272 780.542 21.8987 780.734 21.408L781.038 22.464C780.835 22.9653 780.478 23.3653 779.966 23.664C779.454 23.952 778.808 24.096 778.03 24.096ZM788.68 24.096C787.955 24.096 787.315 23.9627 786.76 23.696C786.216 23.4293 785.79 23.024 785.48 22.48C785.182 21.9253 785.032 21.232 785.032 20.4V15.52H786.568V20.224C786.568 21.056 786.766 21.68 787.16 22.096C787.566 22.512 788.131 22.72 788.856 22.72C789.39 22.72 789.854 22.6133 790.248 22.4C790.643 22.176 790.947 21.856 791.16 21.44C791.374 21.0133 791.48 20.5013 791.48 19.904V15.52H793.016V24H791.56V21.712L791.8 22.32C791.523 22.8853 791.107 23.3227 790.552 23.632C789.998 23.9413 789.374 24.096 788.68 24.096ZM795.94 24V12.128H797.476V24H795.94ZM803.524 24.096C802.671 24.096 802.01 23.8667 801.54 23.408C801.071 22.9493 800.836 22.2933 800.836 21.44V13.664H802.372V21.376C802.372 21.8347 802.484 22.1867 802.708 22.432C802.943 22.6773 803.274 22.8 803.7 22.8C804.18 22.8 804.58 22.6667 804.9 22.4L805.38 23.504C805.146 23.7067 804.863 23.856 804.532 23.952C804.212 24.048 803.876 24.096 803.524 24.096ZM799.396 16.784V15.52H804.804V16.784H799.396Z" fill="#282828"/>
<path d="M896 15L890 20.9998L884 15" stroke="#282828" stroke-width="1.34998" stroke-linecap="round" stroke-linejoin="round"/>
</svg>
