<svg width="516" height="296" viewBox="0 0 516 296" fill="none" xmlns="http://www.w3.org/2000/svg">
<path d="M6 0.5H510C513.038 0.5 515.5 2.96243 515.5 6V52C515.5 55.0376 513.038 57.5 510 57.5H6C2.96244 57.5 0.5 55.0376 0.5 52V6L0.506836 5.7168C0.654222 2.81084 3.05741 0.5 6 0.5Z" stroke="white"/>
<path d="M34.1 36V22H35.74L45 33.5H44.14V22H46.14V36H44.5L35.24 24.5H36.1V36H34.1ZM56.6305 36V33.76L56.5305 33.34V29.52C56.5305 28.7067 56.2905 28.08 55.8105 27.64C55.3438 27.1867 54.6371 26.96 53.6905 26.96C53.0638 26.96 52.4505 27.0667 51.8505 27.28C51.2505 27.48 50.7438 27.7533 50.3305 28.1L49.5305 26.66C50.0771 26.22 50.7305 25.8867 51.4905 25.66C52.2638 25.42 53.0705 25.3 53.9105 25.3C55.3638 25.3 56.4838 25.6533 57.2705 26.36C58.0571 27.0667 58.4505 28.1467 58.4505 29.6V36H56.6305ZM53.1505 36.12C52.3638 36.12 51.6705 35.9867 51.0705 35.72C50.4838 35.4533 50.0305 35.0867 49.7105 34.62C49.3905 34.14 49.2305 33.6 49.2305 33C49.2305 32.4267 49.3638 31.9067 49.6305 31.44C49.9105 30.9733 50.3571 30.6 50.9705 30.32C51.5971 30.04 52.4371 29.9 53.4905 29.9H56.8505V31.28H53.5705C52.6105 31.28 51.9638 31.44 51.6305 31.76C51.2971 32.08 51.1305 32.4667 51.1305 32.92C51.1305 33.44 51.3371 33.86 51.7505 34.18C52.1638 34.4867 52.7371 34.64 53.4705 34.64C54.1905 34.64 54.8171 34.48 55.3505 34.16C55.8971 33.84 56.2905 33.3733 56.5305 32.76L56.9105 34.08C56.6571 34.7067 56.2105 35.2067 55.5705 35.58C54.9305 35.94 54.1238 36.12 53.1505 36.12ZM75.2636 25.3C76.1169 25.3 76.8703 25.4667 77.5236 25.8C78.1769 26.1333 78.6836 26.64 79.0436 27.32C79.4169 28 79.6036 28.86 79.6036 29.9V36H77.6836V30.12C77.6836 29.0933 77.4436 28.32 76.9636 27.8C76.4836 27.28 75.8103 27.02 74.9436 27.02C74.3036 27.02 73.7436 27.1533 73.2636 27.42C72.7836 27.6867 72.4103 28.08 72.1436 28.6C71.8903 29.12 71.7636 29.7667 71.7636 30.54V36H69.8436V30.12C69.8436 29.0933 69.6036 28.32 69.1236 27.8C68.6569 27.28 67.9836 27.02 67.1036 27.02C66.4769 27.02 65.9236 27.1533 65.4436 27.42C64.9636 27.6867 64.5903 28.08 64.3236 28.6C64.0569 29.12 63.9236 29.7667 63.9236 30.54V36H62.0036V25.4H63.8436V28.22L63.5436 27.5C63.8769 26.8067 64.3903 26.2667 65.0836 25.88C65.7769 25.4933 66.5836 25.3 67.5036 25.3C68.5169 25.3 69.3903 25.5533 70.1236 26.06C70.8569 26.5533 71.3369 27.3067 71.5636 28.32L70.7836 28C71.1036 27.1867 71.6636 26.5333 72.4636 26.04C73.2636 25.5467 74.1969 25.3 75.2636 25.3ZM87.8564 36.12C86.7231 36.12 85.7231 35.8867 84.8564 35.42C84.0031 34.9533 83.3364 34.3133 82.8564 33.5C82.3897 32.6867 82.1564 31.7533 82.1564 30.7C82.1564 29.6467 82.3831 28.7133 82.8364 27.9C83.3031 27.0867 83.9364 26.4533 84.7364 26C85.5497 25.5333 86.4631 25.3 87.4764 25.3C88.5031 25.3 89.4097 25.5267 90.1964 25.98C90.9831 26.4333 91.5964 27.0733 92.0364 27.9C92.4897 28.7133 92.7164 29.6667 92.7164 30.76C92.7164 30.84 92.7097 30.9333 92.6964 31.04C92.6964 31.1467 92.6897 31.2467 92.6764 31.34H83.6564V29.96H91.6764L90.8964 30.44C90.9097 29.76 90.7697 29.1533 90.4764 28.62C90.1831 28.0867 89.7764 27.6733 89.2564 27.38C88.7497 27.0733 88.1564 26.92 87.4764 26.92C86.8097 26.92 86.2164 27.0733 85.6964 27.38C85.1764 27.6733 84.7697 28.0933 84.4764 28.64C84.1831 29.1733 84.0364 29.7867 84.0364 30.48V30.8C84.0364 31.5067 84.1964 32.14 84.5164 32.7C84.8497 33.2467 85.3097 33.6733 85.8964 33.98C86.4831 34.2867 87.1564 34.44 87.9164 34.44C88.5431 34.44 89.1097 34.3333 89.6164 34.12C90.1364 33.9067 90.5897 33.5867 90.9764 33.16L92.0364 34.4C91.5564 34.96 90.9564 35.3867 90.2364 35.68C89.5297 35.9733 88.7364 36.12 87.8564 36.12Z" fill="white"/>
<path d="M6 74.5H510C513.038 74.5 515.5 76.9624 515.5 80V126C515.5 129.038 513.038 131.5 510 131.5H6C2.96244 131.5 0.5 129.038 0.5 126V80L0.506836 79.7168C0.654222 76.8108 3.05741 74.5 6 74.5Z" stroke="white"/>
<path d="M34.1 110V96H39.56C40.7867 96 41.8333 96.1933 42.7 96.58C43.5667 96.9667 44.2333 97.5267 44.7 98.26C45.1667 98.9933 45.4 99.8667 45.4 100.88C45.4 101.893 45.1667 102.767 44.7 103.5C44.2333 104.22 43.5667 104.78 42.7 105.18C41.8333 105.567 40.7867 105.76 39.56 105.76H35.2L36.1 104.82V110H34.1ZM36.1 105.02L35.2 104.02H39.5C40.78 104.02 41.7467 103.747 42.4 103.2C43.0667 102.653 43.4 101.88 43.4 100.88C43.4 99.88 43.0667 99.1067 42.4 98.56C41.7467 98.0133 40.78 97.74 39.5 97.74H35.2L36.1 96.74V105.02ZM53.9136 99.3C54.7803 99.3 55.5403 99.4667 56.1936 99.8C56.8603 100.133 57.3803 100.64 57.7536 101.32C58.1269 102 58.3136 102.86 58.3136 103.9V110H56.3936V104.12C56.3936 103.093 56.1403 102.32 55.6336 101.8C55.1403 101.28 54.4403 101.02 53.5336 101.02C52.8536 101.02 52.2603 101.153 51.7536 101.42C51.2469 101.687 50.8536 102.08 50.5736 102.6C50.3069 103.12 50.1736 103.767 50.1736 104.54V110H48.2536V95.16H50.1736V102.26L49.7936 101.5C50.1403 100.807 50.6736 100.267 51.3936 99.88C52.1136 99.4933 52.9536 99.3 53.9136 99.3ZM66.4069 110.12C65.3402 110.12 64.3935 109.887 63.5669 109.42C62.7402 108.953 62.0869 108.313 61.6069 107.5C61.1269 106.673 60.8869 105.74 60.8869 104.7C60.8869 103.647 61.1269 102.713 61.6069 101.9C62.0869 101.087 62.7402 100.453 63.5669 100C64.3935 99.5333 65.3402 99.3 66.4069 99.3C67.4602 99.3 68.4002 99.5333 69.2269 100C70.0669 100.453 70.7202 101.087 71.1869 101.9C71.6669 102.7 71.9069 103.633 71.9069 104.7C71.9069 105.753 71.6669 106.687 71.1869 107.5C70.7202 108.313 70.0669 108.953 69.2269 109.42C68.4002 109.887 67.4602 110.12 66.4069 110.12ZM66.4069 108.44C67.0869 108.44 67.6935 108.287 68.2269 107.98C68.7735 107.673 69.2002 107.24 69.5069 106.68C69.8135 106.107 69.9669 105.447 69.9669 104.7C69.9669 103.94 69.8135 103.287 69.5069 102.74C69.2002 102.18 68.7735 101.747 68.2269 101.44C67.6935 101.133 67.0869 100.98 66.4069 100.98C65.7269 100.98 65.1202 101.133 64.5869 101.44C64.0535 101.747 63.6269 102.18 63.3069 102.74C62.9869 103.287 62.8269 103.94 62.8269 104.7C62.8269 105.447 62.9869 106.107 63.3069 106.68C63.6269 107.24 64.0535 107.673 64.5869 107.98C65.1202 108.287 65.7269 108.44 66.4069 108.44ZM80.2222 99.3C81.0889 99.3 81.8489 99.4667 82.5022 99.8C83.1689 100.133 83.6889 100.64 84.0622 101.32C84.4355 102 84.6222 102.86 84.6222 103.9V110H82.7022V104.12C82.7022 103.093 82.4489 102.32 81.9422 101.8C81.4489 101.28 80.7489 101.02 79.8422 101.02C79.1622 101.02 78.5689 101.153 78.0622 101.42C77.5555 101.687 77.1622 102.08 76.8822 102.6C76.6155 103.12 76.4822 103.767 76.4822 104.54V110H74.5622V99.4H76.4022V102.26L76.1022 101.5C76.4489 100.807 76.9822 100.267 77.7022 99.88C78.4222 99.4933 79.2622 99.3 80.2222 99.3ZM92.8955 110.12C91.7621 110.12 90.7621 109.887 89.8955 109.42C89.0421 108.953 88.3755 108.313 87.8955 107.5C87.4288 106.687 87.1955 105.753 87.1955 104.7C87.1955 103.647 87.4221 102.713 87.8755 101.9C88.3421 101.087 88.9755 100.453 89.7755 100C90.5888 99.5333 91.5021 99.3 92.5155 99.3C93.5421 99.3 94.4488 99.5267 95.2355 99.98C96.0221 100.433 96.6355 101.073 97.0755 101.9C97.5288 102.713 97.7555 103.667 97.7555 104.76C97.7555 104.84 97.7488 104.933 97.7355 105.04C97.7355 105.147 97.7288 105.247 97.7155 105.34H88.6955V103.96H96.7155L95.9355 104.44C95.9488 103.76 95.8088 103.153 95.5155 102.62C95.2221 102.087 94.8155 101.673 94.2955 101.38C93.7888 101.073 93.1955 100.92 92.5155 100.92C91.8488 100.92 91.2555 101.073 90.7355 101.38C90.2155 101.673 89.8088 102.093 89.5155 102.64C89.2221 103.173 89.0755 103.787 89.0755 104.48V104.8C89.0755 105.507 89.2355 106.14 89.5555 106.7C89.8888 107.247 90.3488 107.673 90.9355 107.98C91.5221 108.287 92.1955 108.44 92.9555 108.44C93.5821 108.44 94.1488 108.333 94.6555 108.12C95.1755 107.907 95.6288 107.587 96.0155 107.16L97.0755 108.4C96.5955 108.96 95.9955 109.387 95.2755 109.68C94.5688 109.973 93.7755 110.12 92.8955 110.12ZM111.453 99.3C112.319 99.3 113.079 99.4667 113.733 99.8C114.399 100.133 114.919 100.64 115.293 101.32C115.666 102 115.853 102.86 115.853 103.9V110H113.933V104.12C113.933 103.093 113.679 102.32 113.173 101.8C112.679 101.28 111.979 101.02 111.073 101.02C110.393 101.02 109.799 101.153 109.293 101.42C108.786 101.687 108.393 102.08 108.113 102.6C107.846 103.12 107.713 103.767 107.713 104.54V110H105.793V99.4H107.633V102.26L107.333 101.5C107.679 100.807 108.213 100.267 108.933 99.88C109.653 99.4933 110.493 99.3 111.453 99.3ZM123.866 110.12C122.959 110.12 122.159 109.953 121.466 109.62C120.786 109.287 120.253 108.78 119.866 108.1C119.493 107.407 119.306 106.54 119.306 105.5V99.4H121.226V105.28C121.226 106.32 121.473 107.1 121.966 107.62C122.473 108.14 123.179 108.4 124.086 108.4C124.753 108.4 125.333 108.267 125.826 108C126.319 107.72 126.699 107.32 126.966 106.8C127.233 106.267 127.366 105.627 127.366 104.88V99.4H129.286V110H127.466V107.14L127.766 107.9C127.419 108.607 126.899 109.153 126.206 109.54C125.513 109.927 124.733 110.12 123.866 110.12ZM146.201 99.3C147.054 99.3 147.808 99.4667 148.461 99.8C149.114 100.133 149.621 100.64 149.981 101.32C150.354 102 150.541 102.86 150.541 103.9V110H148.621V104.12C148.621 103.093 148.381 102.32 147.901 101.8C147.421 101.28 146.748 101.02 145.881 101.02C145.241 101.02 144.681 101.153 144.201 101.42C143.721 101.687 143.348 102.08 143.081 102.6C142.828 103.12 142.701 103.767 142.701 104.54V110H140.781V104.12C140.781 103.093 140.541 102.32 140.061 101.8C139.594 101.28 138.921 101.02 138.041 101.02C137.414 101.02 136.861 101.153 136.381 101.42C135.901 101.687 135.528 102.08 135.261 102.6C134.994 103.12 134.861 103.767 134.861 104.54V110H132.941V99.4H134.781V102.22L134.481 101.5C134.814 100.807 135.328 100.267 136.021 99.88C136.714 99.4933 137.521 99.3 138.441 99.3C139.454 99.3 140.328 99.5533 141.061 100.06C141.794 100.553 142.274 101.307 142.501 102.32L141.721 102C142.041 101.187 142.601 100.533 143.401 100.04C144.201 99.5467 145.134 99.3 146.201 99.3ZM159.694 110.12C158.787 110.12 157.967 109.92 157.234 109.52C156.514 109.107 155.941 108.5 155.514 107.7C155.101 106.9 154.894 105.9 154.894 104.7C154.894 103.5 155.107 102.5 155.534 101.7C155.974 100.9 156.554 100.3 157.274 99.9C158.007 99.5 158.814 99.3 159.694 99.3C160.734 99.3 161.654 99.5267 162.454 99.98C163.254 100.433 163.887 101.067 164.354 101.88C164.821 102.68 165.054 103.62 165.054 104.7C165.054 105.78 164.821 106.727 164.354 107.54C163.887 108.353 163.254 108.987 162.454 109.44C161.654 109.893 160.734 110.12 159.694 110.12ZM154.074 110V95.16H155.994V102.22L155.794 104.68L155.914 107.14V110H154.074ZM159.534 108.44C160.214 108.44 160.821 108.287 161.354 107.98C161.901 107.673 162.327 107.24 162.634 106.68C162.954 106.107 163.114 105.447 163.114 104.7C163.114 103.94 162.954 103.287 162.634 102.74C162.327 102.18 161.901 101.747 161.354 101.44C160.821 101.133 160.214 100.98 159.534 100.98C158.867 100.98 158.261 101.133 157.714 101.44C157.181 101.747 156.754 102.18 156.434 102.74C156.127 103.287 155.974 103.94 155.974 104.7C155.974 105.447 156.127 106.107 156.434 106.68C156.754 107.24 157.181 107.673 157.714 107.98C158.261 108.287 158.867 108.44 159.534 108.44ZM172.427 110.12C171.293 110.12 170.293 109.887 169.427 109.42C168.573 108.953 167.907 108.313 167.427 107.5C166.96 106.687 166.727 105.753 166.727 104.7C166.727 103.647 166.953 102.713 167.407 101.9C167.873 101.087 168.507 100.453 169.307 100C170.12 99.5333 171.033 99.3 172.047 99.3C173.073 99.3 173.98 99.5267 174.767 99.98C175.553 100.433 176.167 101.073 176.607 101.9C177.06 102.713 177.287 103.667 177.287 104.76C177.287 104.84 177.28 104.933 177.267 105.04C177.267 105.147 177.26 105.247 177.247 105.34H168.227V103.96H176.247L175.467 104.44C175.48 103.76 175.34 103.153 175.047 102.62C174.753 102.087 174.347 101.673 173.827 101.38C173.32 101.073 172.727 100.92 172.047 100.92C171.38 100.92 170.787 101.073 170.267 101.38C169.747 101.673 169.34 102.093 169.047 102.64C168.753 103.173 168.607 103.787 168.607 104.48V104.8C168.607 105.507 168.767 106.14 169.087 106.7C169.42 107.247 169.88 107.673 170.467 107.98C171.053 108.287 171.727 108.44 172.487 108.44C173.113 108.44 173.68 108.333 174.187 108.12C174.707 107.907 175.16 107.587 175.547 107.16L176.607 108.4C176.127 108.96 175.527 109.387 174.807 109.68C174.1 109.973 173.307 110.12 172.427 110.12ZM179.953 110V99.4H181.793V102.28L181.613 101.56C181.906 100.827 182.399 100.267 183.093 99.88C183.786 99.4933 184.639 99.3 185.653 99.3V101.16C185.573 101.147 185.493 101.14 185.413 101.14C185.346 101.14 185.279 101.14 185.213 101.14C184.186 101.14 183.373 101.447 182.773 102.06C182.173 102.673 181.873 103.56 181.873 104.72V110H179.953Z" fill="white"/>
<path d="M6 148.5H510C513.038 148.5 515.5 150.962 515.5 154V200C515.5 203.038 513.038 205.5 510 205.5H6C2.96244 205.5 0.5 203.038 0.5 200V154L0.506836 153.717C0.654222 150.811 3.05741 148.5 6 148.5Z" stroke="white"/>
<path d="M35.92 176.04H43.12V177.74H35.92V176.04ZM36.1 182.26H44.26V184H34.1V170H43.98V171.74H36.1V182.26ZM60.4784 173.3C61.3318 173.3 62.0851 173.467 62.7384 173.8C63.3918 174.133 63.8984 174.64 64.2584 175.32C64.6318 176 64.8184 176.86 64.8184 177.9V184H62.8984V178.12C62.8984 177.093 62.6584 176.32 62.1784 175.8C61.6984 175.28 61.0251 175.02 60.1584 175.02C59.5184 175.02 58.9584 175.153 58.4784 175.42C57.9984 175.687 57.6251 176.08 57.3584 176.6C57.1051 177.12 56.9784 177.767 56.9784 178.54V184H55.0584V178.12C55.0584 177.093 54.8184 176.32 54.3384 175.8C53.8718 175.28 53.1984 175.02 52.3184 175.02C51.6918 175.02 51.1384 175.153 50.6584 175.42C50.1784 175.687 49.8051 176.08 49.5384 176.6C49.2718 177.12 49.1384 177.767 49.1384 178.54V184H47.2184V173.4H49.0584V176.22L48.7584 175.5C49.0918 174.807 49.6051 174.267 50.2984 173.88C50.9918 173.493 51.7984 173.3 52.7184 173.3C53.7318 173.3 54.6051 173.553 55.3384 174.06C56.0718 174.553 56.5518 175.307 56.7784 176.32L55.9984 176C56.3184 175.187 56.8784 174.533 57.6784 174.04C58.4784 173.547 59.4118 173.3 60.4784 173.3ZM74.9313 184V181.76L74.8313 181.34V177.52C74.8313 176.707 74.5913 176.08 74.1113 175.64C73.6446 175.187 72.9379 174.96 71.9913 174.96C71.3646 174.96 70.7513 175.067 70.1513 175.28C69.5513 175.48 69.0446 175.753 68.6313 176.1L67.8313 174.66C68.3779 174.22 69.0313 173.887 69.7913 173.66C70.5646 173.42 71.3713 173.3 72.2113 173.3C73.6646 173.3 74.7846 173.653 75.5713 174.36C76.3579 175.067 76.7513 176.147 76.7513 177.6V184H74.9313ZM71.4513 184.12C70.6646 184.12 69.9713 183.987 69.3713 183.72C68.7846 183.453 68.3313 183.087 68.0113 182.62C67.6913 182.14 67.5313 181.6 67.5313 181C67.5313 180.427 67.6646 179.907 67.9313 179.44C68.2113 178.973 68.6579 178.6 69.2713 178.32C69.8979 178.04 70.7379 177.9 71.7913 177.9H75.1513V179.28H71.8713C70.9113 179.28 70.2646 179.44 69.9313 179.76C69.5979 180.08 69.4313 180.467 69.4313 180.92C69.4313 181.44 69.6379 181.86 70.0513 182.18C70.4646 182.487 71.0379 182.64 71.7713 182.64C72.4913 182.64 73.1179 182.48 73.6513 182.16C74.1979 181.84 74.5913 181.373 74.8313 180.76L75.2113 182.08C74.9579 182.707 74.5113 183.207 73.8713 183.58C73.2313 183.94 72.4246 184.12 71.4513 184.12ZM80.3044 184V173.4H82.2244V184H80.3044ZM81.2644 171.36C80.891 171.36 80.5777 171.24 80.3244 171C80.0844 170.76 79.9644 170.467 79.9644 170.12C79.9644 169.76 80.0844 169.46 80.3244 169.22C80.5777 168.98 80.891 168.86 81.2644 168.86C81.6377 168.86 81.9444 168.98 82.1844 169.22C82.4377 169.447 82.5644 169.733 82.5644 170.08C82.5644 170.44 82.4444 170.747 82.2044 171C81.9644 171.24 81.651 171.36 81.2644 171.36ZM85.8903 184V169.16H87.8103V184H85.8903Z" fill="white"/>
<path d="M0 244C0 240.686 2.68629 238 6 238H510C513.314 238 516 240.686 516 244V290C516 293.314 513.314 296 510 296H6C2.68629 296 0 293.314 0 290V244Z" fill="white"/>
<path d="M191.664 274.2C190.571 274.2 189.564 274.027 188.644 273.68C187.737 273.32 186.944 272.82 186.264 272.18C185.584 271.527 185.057 270.76 184.684 269.88C184.311 269 184.124 268.04 184.124 267C184.124 265.96 184.311 265 184.684 264.12C185.057 263.24 185.584 262.48 186.264 261.84C186.957 261.187 187.764 260.687 188.684 260.34C189.604 259.98 190.611 259.8 191.704 259.8C192.891 259.8 193.957 259.993 194.904 260.38C195.864 260.767 196.671 261.333 197.324 262.08L195.684 263.68C195.137 263.133 194.544 262.733 193.904 262.48C193.277 262.213 192.584 262.08 191.824 262.08C191.091 262.08 190.411 262.2 189.784 262.44C189.157 262.68 188.617 263.02 188.164 263.46C187.711 263.9 187.357 264.42 187.104 265.02C186.864 265.62 186.744 266.28 186.744 267C186.744 267.707 186.864 268.36 187.104 268.96C187.357 269.56 187.711 270.087 188.164 270.54C188.617 270.98 189.151 271.32 189.764 271.56C190.377 271.8 191.057 271.92 191.804 271.92C192.497 271.92 193.164 271.813 193.804 271.6C194.457 271.373 195.077 271 195.664 270.48L197.144 272.42C196.411 273.007 195.557 273.453 194.584 273.76C193.624 274.053 192.651 274.2 191.664 274.2ZM194.684 272.08V266.84H197.144V272.42L194.684 272.08ZM205.353 274.14C204.167 274.14 203.127 273.907 202.233 273.44C201.353 272.96 200.667 272.307 200.173 271.48C199.693 270.653 199.453 269.713 199.453 268.66C199.453 267.593 199.687 266.653 200.153 265.84C200.633 265.013 201.287 264.367 202.113 263.9C202.953 263.433 203.907 263.2 204.973 263.2C206.013 263.2 206.94 263.427 207.753 263.88C208.567 264.333 209.207 264.973 209.673 265.8C210.14 266.627 210.373 267.6 210.373 268.72C210.373 268.827 210.367 268.947 210.353 269.08C210.353 269.213 210.347 269.34 210.333 269.46H201.433V267.8H209.013L208.033 268.32C208.047 267.707 207.92 267.167 207.653 266.7C207.387 266.233 207.02 265.867 206.553 265.6C206.1 265.333 205.573 265.2 204.973 265.2C204.36 265.2 203.82 265.333 203.353 265.6C202.9 265.867 202.54 266.24 202.273 266.72C202.02 267.187 201.893 267.74 201.893 268.38V268.78C201.893 269.42 202.04 269.987 202.333 270.48C202.627 270.973 203.04 271.353 203.573 271.62C204.107 271.887 204.72 272.02 205.413 272.02C206.013 272.02 206.553 271.927 207.033 271.74C207.513 271.553 207.94 271.26 208.313 270.86L209.653 272.4C209.173 272.96 208.567 273.393 207.833 273.7C207.113 273.993 206.287 274.14 205.353 274.14ZM216.795 274.14C215.621 274.14 214.715 273.84 214.075 273.24C213.435 272.627 213.115 271.727 213.115 270.54V260.96H215.615V270.48C215.615 270.987 215.741 271.38 215.995 271.66C216.261 271.94 216.628 272.08 217.095 272.08C217.655 272.08 218.121 271.933 218.495 271.64L219.195 273.42C218.901 273.66 218.541 273.84 218.115 273.96C217.688 274.08 217.248 274.14 216.795 274.14ZM211.355 265.4V263.4H218.475V265.4H211.355ZM233.359 274V271.84L233.219 271.38V267.6C233.219 266.867 232.999 266.3 232.559 265.9C232.119 265.487 231.452 265.28 230.559 265.28C229.959 265.28 229.365 265.373 228.779 265.56C228.205 265.747 227.719 266.007 227.319 266.34L226.339 264.52C226.912 264.08 227.592 263.753 228.379 263.54C229.179 263.313 230.005 263.2 230.859 263.2C232.405 263.2 233.599 263.573 234.439 264.32C235.292 265.053 235.719 266.193 235.719 267.74V274H233.359ZM229.999 274.14C229.199 274.14 228.499 274.007 227.899 273.74C227.299 273.46 226.832 273.08 226.499 272.6C226.179 272.107 226.019 271.553 226.019 270.94C226.019 270.34 226.159 269.8 226.439 269.32C226.732 268.84 227.205 268.46 227.859 268.18C228.512 267.9 229.379 267.76 230.459 267.76H233.559V269.42H230.639C229.785 269.42 229.212 269.56 228.919 269.84C228.625 270.107 228.479 270.44 228.479 270.84C228.479 271.293 228.659 271.653 229.019 271.92C229.379 272.187 229.879 272.32 230.519 272.32C231.132 272.32 231.679 272.18 232.159 271.9C232.652 271.62 233.005 271.207 233.219 270.66L233.639 272.16C233.399 272.787 232.965 273.273 232.339 273.62C231.725 273.967 230.945 274.14 229.999 274.14ZM248.974 274.14C247.948 274.14 247.021 273.913 246.194 273.46C245.381 272.993 244.741 272.353 244.274 271.54C243.808 270.727 243.574 269.767 243.574 268.66C243.574 267.553 243.808 266.593 244.274 265.78C244.741 264.967 245.381 264.333 246.194 263.88C247.021 263.427 247.948 263.2 248.974 263.2C249.868 263.2 250.668 263.4 251.374 263.8C252.081 264.187 252.641 264.78 253.054 265.58C253.468 266.38 253.674 267.407 253.674 268.66C253.674 269.9 253.474 270.927 253.074 271.74C252.674 272.54 252.121 273.14 251.414 273.54C250.708 273.94 249.894 274.14 248.974 274.14ZM249.274 272C249.874 272 250.408 271.867 250.874 271.6C251.354 271.333 251.734 270.947 252.014 270.44C252.308 269.933 252.454 269.34 252.454 268.66C252.454 267.967 252.308 267.373 252.014 266.88C251.734 266.373 251.354 265.987 250.874 265.72C250.408 265.453 249.874 265.32 249.274 265.32C248.674 265.32 248.134 265.453 247.654 265.72C247.188 265.987 246.808 266.373 246.514 266.88C246.234 267.373 246.094 267.967 246.094 268.66C246.094 269.34 246.234 269.933 246.514 270.44C246.808 270.947 247.188 271.333 247.654 271.6C248.134 271.867 248.674 272 249.274 272ZM252.514 274V271.48L252.614 268.64L252.414 265.8V259.16H254.894V274H252.514ZM258.185 274V263.32H260.685V274H258.185ZM259.445 261.56C258.978 261.56 258.592 261.413 258.285 261.12C257.992 260.827 257.845 260.473 257.845 260.06C257.845 259.633 257.992 259.28 258.285 259C258.592 258.707 258.978 258.56 259.445 258.56C259.912 258.56 260.292 258.7 260.585 258.98C260.892 259.247 261.045 259.587 261.045 260C261.045 260.44 260.898 260.813 260.605 261.12C260.312 261.413 259.925 261.56 259.445 261.56ZM267.266 274.14C266.373 274.14 265.513 274.027 264.686 273.8C263.873 273.56 263.226 273.273 262.746 272.94L263.706 271.04C264.186 271.347 264.76 271.6 265.426 271.8C266.093 272 266.76 272.1 267.426 272.1C268.213 272.1 268.78 271.993 269.126 271.78C269.486 271.567 269.666 271.28 269.666 270.92C269.666 270.627 269.546 270.407 269.306 270.26C269.066 270.1 268.753 269.98 268.366 269.9C267.98 269.82 267.546 269.747 267.066 269.68C266.6 269.613 266.126 269.527 265.646 269.42C265.18 269.3 264.753 269.133 264.366 268.92C263.98 268.693 263.666 268.393 263.426 268.02C263.186 267.647 263.066 267.153 263.066 266.54C263.066 265.86 263.26 265.273 263.646 264.78C264.033 264.273 264.573 263.887 265.266 263.62C265.973 263.34 266.806 263.2 267.766 263.2C268.486 263.2 269.213 263.28 269.946 263.44C270.68 263.6 271.286 263.827 271.766 264.12L270.806 266.02C270.3 265.713 269.786 265.507 269.266 265.4C268.76 265.28 268.253 265.22 267.746 265.22C266.986 265.22 266.42 265.333 266.046 265.56C265.686 265.787 265.506 266.073 265.506 266.42C265.506 266.74 265.626 266.98 265.866 267.14C266.106 267.3 266.42 267.427 266.806 267.52C267.193 267.613 267.62 267.693 268.086 267.76C268.566 267.813 269.04 267.9 269.506 268.02C269.973 268.14 270.4 268.307 270.786 268.52C271.186 268.72 271.506 269.007 271.746 269.38C271.986 269.753 272.106 270.24 272.106 270.84C272.106 271.507 271.906 272.087 271.506 272.58C271.12 273.073 270.566 273.46 269.846 273.74C269.126 274.007 268.266 274.14 267.266 274.14ZM279.159 274.14C278.039 274.14 277.039 273.907 276.159 273.44C275.292 272.96 274.612 272.307 274.119 271.48C273.626 270.653 273.379 269.713 273.379 268.66C273.379 267.593 273.626 266.653 274.119 265.84C274.612 265.013 275.292 264.367 276.159 263.9C277.039 263.433 278.039 263.2 279.159 263.2C280.199 263.2 281.112 263.413 281.899 263.84C282.699 264.253 283.306 264.867 283.719 265.68L281.799 266.8C281.479 266.293 281.086 265.92 280.619 265.68C280.166 265.44 279.672 265.32 279.139 265.32C278.526 265.32 277.972 265.453 277.479 265.72C276.986 265.987 276.599 266.373 276.319 266.88C276.039 267.373 275.899 267.967 275.899 268.66C275.899 269.353 276.039 269.953 276.319 270.46C276.599 270.953 276.986 271.333 277.479 271.6C277.972 271.867 278.526 272 279.139 272C279.672 272 280.166 271.88 280.619 271.64C281.086 271.4 281.479 271.027 281.799 270.52L283.719 271.64C283.306 272.44 282.699 273.06 281.899 273.5C281.112 273.927 280.199 274.14 279.159 274.14ZM290.524 274.14C289.431 274.14 288.457 273.907 287.604 273.44C286.751 272.96 286.077 272.307 285.584 271.48C285.091 270.653 284.844 269.713 284.844 268.66C284.844 267.593 285.091 266.653 285.584 265.84C286.077 265.013 286.751 264.367 287.604 263.9C288.457 263.433 289.431 263.2 290.524 263.2C291.631 263.2 292.611 263.433 293.464 263.9C294.331 264.367 295.004 265.007 295.484 265.82C295.977 266.633 296.224 267.58 296.224 268.66C296.224 269.713 295.977 270.653 295.484 271.48C295.004 272.307 294.331 272.96 293.464 273.44C292.611 273.907 291.631 274.14 290.524 274.14ZM290.524 272C291.137 272 291.684 271.867 292.164 271.6C292.644 271.333 293.017 270.947 293.284 270.44C293.564 269.933 293.704 269.34 293.704 268.66C293.704 267.967 293.564 267.373 293.284 266.88C293.017 266.373 292.644 265.987 292.164 265.72C291.684 265.453 291.144 265.32 290.544 265.32C289.931 265.32 289.384 265.453 288.904 265.72C288.437 265.987 288.064 266.373 287.784 266.88C287.504 267.373 287.364 267.967 287.364 268.66C287.364 269.34 287.504 269.933 287.784 270.44C288.064 270.947 288.437 271.333 288.904 271.6C289.384 271.867 289.924 272 290.524 272ZM303.135 274.14C302.228 274.14 301.428 273.973 300.735 273.64C300.041 273.293 299.501 272.773 299.115 272.08C298.728 271.373 298.535 270.487 298.535 269.42V263.32H301.035V269.08C301.035 270.04 301.248 270.76 301.675 271.24C302.115 271.707 302.735 271.94 303.535 271.94C304.121 271.94 304.628 271.82 305.055 271.58C305.495 271.34 305.835 270.98 306.075 270.5C306.328 270.02 306.455 269.427 306.455 268.72V263.32H308.955V274H306.575V271.12L306.995 272C306.635 272.693 306.108 273.227 305.415 273.6C304.721 273.96 303.961 274.14 303.135 274.14ZM318.288 263.2C319.141 263.2 319.901 263.367 320.568 263.7C321.248 264.033 321.781 264.547 322.168 265.24C322.555 265.92 322.748 266.8 322.748 267.88V274H320.248V268.2C320.248 267.253 320.021 266.547 319.568 266.08C319.128 265.613 318.508 265.38 317.708 265.38C317.121 265.38 316.601 265.5 316.148 265.74C315.695 265.98 315.341 266.34 315.088 266.82C314.848 267.287 314.728 267.88 314.728 268.6V274H312.228V263.32H314.608V266.2L314.188 265.32C314.561 264.64 315.101 264.12 315.808 263.76C316.528 263.387 317.355 263.2 318.288 263.2ZM329.939 274.14C328.766 274.14 327.859 273.84 327.219 273.24C326.579 272.627 326.259 271.727 326.259 270.54V260.96H328.759V270.48C328.759 270.987 328.886 271.38 329.139 271.66C329.406 271.94 329.773 272.08 330.239 272.08C330.799 272.08 331.266 271.933 331.639 271.64L332.339 273.42C332.046 273.66 331.686 273.84 331.259 273.96C330.833 274.08 330.393 274.14 329.939 274.14ZM324.499 265.4V263.4H331.619V265.4H324.499Z" fill="#282828"/>
</svg>
